<svg xmlns="http://www.w3.org/2000/svg" viewBox="0 -220 1057 914" fill="#E57C04">
  <g transform="scale(1,-1) translate(0,-474)">
    <path d="M147 514Q147 525 145.5 531.5Q144 538 137 538Q128 538 116.5 518.0Q105 498 81 470Q67 455 55.5 446.0Q44 437 35.0 431.0Q26 425 21.0 420.0Q16 415 16 409Q16 396 34 396H52Q62 396 64.0 387.5Q66 379 66 365L62 150V108Q62 -19 142 -19Q165 -19 185.5 -10.5Q206 -2 221.5 10.0Q237 22 246.0 34.0Q255 46 255 53Q255 67 245 67Q240 67 234.5 63.0Q229 59 222.0 53.5Q215 48 206.5 44.0Q198 40 187 40Q164 40 155.5 61.5Q147 83 147 130V383Q147 396 159 396H235Q244 396 246.0 399.0Q248 402 248 410V430Q248 436 246.0 438.0Q244 440 235 440H160Q147 440 147 453Z" transform="translate(0,0)"/><path d="M24 220Q24 167 38.5 123.0Q53 79 79.5 47.5Q106 16 143.0 -1.5Q180 -19 225 -19Q275 -19 315.0 -2.0Q355 15 382.5 46.0Q410 77 425.0 121.0Q440 165 440 218Q440 272 425.5 316.0Q411 360 384.5 391.5Q358 423 320.0 440.5Q282 458 236 458Q188 458 149.0 441.0Q110 424 82.0 393.0Q54 362 39.0 318.0Q24 274 24 220ZM232 430Q285 430 318.5 370.5Q352 311 352 205Q352 112 320.5 60.5Q289 9 234 9Q180 9 146.5 68.5Q113 128 113 234Q113 328 144.0 379.0Q175 430 232 430Z" transform="translate(200,0)"/><path d="M319 324V88Q319 28 257 28Q191 28 153.0 77.0Q115 126 115 215Q115 264 125.0 304.0Q135 344 152.0 371.5Q169 399 192.0 414.0Q215 429 241 429Q319 429 319 324ZM403 294Q403 361 407.0 402.0Q411 443 411 459Q411 469 407.5 473.0Q404 477 399 477Q393 477 388.0 469.0Q383 461 377.5 451.5Q372 442 366.5 434.0Q361 426 353 426Q346 426 335.5 431.0Q325 436 310.5 442.0Q296 448 277.0 453.0Q258 458 233 458Q188 458 150.0 440.0Q112 422 84.0 389.0Q56 356 40.0 311.0Q24 266 24 212Q24 159 38.5 116.0Q53 73 78.5 43.0Q104 13 137.0 -3.0Q170 -19 208 -19Q254 -19 313 17L319 13V-141Q319 -160 315.5 -168.0Q312 -176 295 -182Q274 -190 262 -190Q250 -190 250 -204Q250 -220 271 -220Q288 -220 311.5 -216.0Q335 -212 361 -212Q388 -212 408.5 -216.0Q429 -220 443 -220Q461 -220 461 -204Q461 -197 457.5 -194.0Q454 -191 448.5 -189.5Q443 -188 435.0 -186.5Q427 -185 418 -180Q407 -174 405.0 -165.0Q403 -156 403 -141Z" transform="translate(605,0)"/>
  </g>
</svg>