<svg role="img" viewBox="0 0 22 22" fill="currentColor" xmlns="http://www.w3.org/2000/svg"><title>LangChain</title><path d="M6.648 14.103C7.894 12.857 8.595 11.164 8.595 9.402 8.595 7.639 7.894 5.947 6.648 4.701L1.947 0C.701 1.246 0 2.939 0 4.701 0 6.464.701 8.156 1.947 9.402l4.7 4.701z"/><path d="M16.485 14.538c-1.246-1.246-2.939-1.947-4.701-1.947s-3.455.701-4.701 1.947l4.701 4.701c1.246 1.246 2.939 1.947 4.701 1.947s3.455-.701 4.701-1.947l-4.701-4.701z"/><path d="M1.958 19.228c1.246 1.246 2.939 1.947 4.701 1.947V14.527H.011c0 1.762.701 3.455 1.947 4.701z"/><path d="M18.3 7.587c-1.247-1.246-2.939-1.947-4.702-1.947s-3.455.701-4.701 1.947l4.701 4.702L18.3 7.587z"/></svg>
